<svg width="32.000000" height="32.000000" viewBox="0 0 32 32" fill="none" xmlns="http://www.w3.org/2000/svg" xmlns:xlink="http://www.w3.org/1999/xlink">
	<desc>
			Created with Pixso.
	</desc>
	<defs/>
	<rect id="Component" width="32.000000" height="32.000000" fill="#FFFFFF" fill-opacity="0"/>
	<path id="Vector 6" d="M4.99 28.8L4.83 29.8L2.85 29.5L3.01 28.49L4.99 28.8ZM28.98 28.49L29.14 29.5L27.16 29.8L27 28.8L28.98 28.49Z" fill="#FFFFFF" fill-opacity="1.000000" fill-rule="nonzero"/>
	<path id="Vector 6" d="M4 28.66L4.33 26.53C4.54 25.19 5.41 24.04 6.7 23.61C8.79 22.92 12.26 22 16 22C19.73 22 23.2 22.92 25.29 23.61C26.58 24.04 27.45 25.19 27.66 26.53L28 28.66" stroke="#FFFFFF" stroke-opacity="1.000000" stroke-width="2.000000" stroke-linejoin="round" stroke-linecap="square"/>
	<path id="Vector" d="M22.66 9.33C22.66 13.01 19.68 16 16 16C12.31 16 9.33 13.01 9.33 9.33C9.33 5.65 12.31 2.66 16 2.66C19.68 2.66 22.66 5.65 22.66 9.33Z" fill="#FFFFFF" fill-opacity="1.000000" fill-rule="evenodd"/>
	<path id="Vector" d="M16 16C12.31 16 9.33 13.01 9.33 9.33C9.33 5.65 12.31 2.66 16 2.66C19.68 2.66 22.66 5.65 22.66 9.33C22.66 13.01 19.68 16 16 16Z" stroke="#FFFFFF" stroke-opacity="1.000000" stroke-width="2.000000" stroke-linejoin="round"/>
</svg>
